<?xml version="1.0" encoding="utf-8"?>
<!-- Svg Vector Icons : http://www.onlinewebfonts.com/icon -->
<!DOCTYPE svg PUBLIC "-//W3C//DTD SVG 1.1//EN" "http://www.w3.org/Graphics/SVG/1.1/DTD/svg11.dtd">
<svg version="1.1" xmlns="http://www.w3.org/2000/svg" xmlns:xlink="http://www.w3.org/1999/xlink" x="0px" y="0px" viewBox="0 0 1000 1000" enable-background="new 0 0 1000 1000" xml:space="preserve">
<metadata> Svg Vector Icons : http://www.onlinewebfonts.com/icon </metadata>
<g><g><g><path style="fill:#FFFFFF;" d="M848.6,258.6c-2.1-62.7-3.2-147.4-2.6-210.1c0-2.8-0.4-5.3-1.1-7.6c1.2-13.7-6.8-28.1-24.3-27.6c-221,5.8-441.9-2.9-662.9-3.2c-18.4,0-26.4,16.1-24.2,30.3c-0.7,2.5-1.2,5.1-1.2,8.1c3.3,263.7,12.4,642.6,12.7,906.3c0,5.9,1.7,10.7,4.4,14.5c1.6,11.2,9.7,21.1,24.2,20.7c95.5-2.4,191.1-3.9,286.5-8.6c85.1-4.2,191.1,1.4,272.4-26.3c28.8-9.8,54.5-24.4,76.6-45.4c40.4-38.5,54.1-90.1,57.6-144.5c3.3-52.3-2.8-107.1-4.1-155.3C859.5,485.5,852.7,382.9,848.6,258.6z M708.8,728.9c-15.6,0.1-30.6,12.2-23.6,30.9c14,37.5,20.4,84.1-1.1,120c-26,43.4-72.4,42.2-116.5,47.8c-27,3.4-55.6,1.6-82.8,2.4c-21.2,0.6-289,7.1-289,8.2c-0.6-253.8-9-622.9-12.4-876.7c204,0.9,408,7.9,612,3.5c-0.8,208.4,17.7,509.7,18.8,674.4c-31.6-10-64.4-14.2-98.1-11.9C713.3,727.6,711,728.2,708.8,728.9z M728.7,902.4c20.5-34.9,25.6-77.8,15-124.2c24.7,1,49,5.7,72,15.5c0.1,0.3,0.2,0.6,0.3,0.9C808.5,849.6,773.7,883.4,728.7,902.4z"/><path style="fill:#FFFFFF;" d="M295.6,327.8c-13-1.4-20.7,5.9-23.4,15.2c-2.6,3.8-4.2,8.5-4.2,14.3c0.2,77.6,2.7,154.9-5.7,232.2c-3.6,32.9,47.8,32.6,51.4,0c3.7-33.6,5.2-67.1,5.8-100.7c41.2-1.3,82-19.2,79.7-68.8C396.7,365.7,344.5,332.9,295.6,327.8z M345.1,432.3c-7,5.3-16.1,6.8-25.2,6.6c0-17.5-0.2-35-0.3-52.5c13.9,7.1,24.9,19,28.4,34.4C348.7,424.1,347.1,430.7,345.1,432.3z"/><path  style="fill:#FFFFFF;" d="M462.3,324.9c-15.8-4.2-27.1,5.7-30.7,17.8c-4.6,4.1-7.6,10.2-7.6,18.3c0.7,69.9,8.9,139.5,11.4,209.3c0.3,9.3,4.7,15.9,10.8,20c5.6,6.9,14.4,11.2,25.6,8.6C615,565.1,593.2,360,462.3,324.9z M485.3,538.1c-2.9-50.4-7.6-100.6-9.3-151.1C527.1,421.8,537.6,504.6,485.3,538.1z"/><path style="fill:#FFFFFF;" d="M687.6,327.8c-20.3,1.9-40.6,1.9-60.9,1.9c-12.7,0-20.5,7.6-23.5,16.9c-1.7,3.5-2.6,7.6-2.2,12.6c5.7,71.1,10.5,141.9,3.8,213.1c-3.1,33,48.3,32.7,51.4,0c2.5-27,3.3-53.9,3.2-80.8c1.4-0.3,2.7-0.8,4.1-1.1c0.8-0.2,1.2-0.3,1.7-0.3c0.4,0,0.7-0.1,1.3-0.1c3.3-0.4,6.5-0.4,9.8-0.5c14-0.2,25.7-11.6,25.7-25.7c0-13.9-11.7-25.9-25.7-25.7c-6.1,0.1-12.3,0.6-18.3,1.5c-1-19.6-2.3-39.2-3.8-58.8c11.2-0.2,22.4-0.7,33.5-1.7c13.9-1.3,25.7-10.7,25.7-25.7C713.3,340.4,701.6,326.5,687.6,327.8z"/></g></g><g></g><g></g><g></g><g></g><g></g><g></g><g></g><g></g><g></g><g></g><g></g><g></g><g></g><g></g><g></g></g>
</svg>